<?xml version="1.0" standalone="no"?>
<!DOCTYPE svg PUBLIC "-//W3C//DTD SVG 20010904//EN"
 "http://www.w3.org/TR/2001/REC-SVG-20010904/DTD/svg10.dtd">
<svg version="1.0" xmlns="http://www.w3.org/2000/svg"
 width="306.000000pt" height="79.000000pt" viewBox="0 0 306.000000 79.000000"
 preserveAspectRatio="xMidYMid meet">

<g transform="translate(0.000000,79.000000) scale(0.100000,-0.100000)"
fill="#000000" stroke="none">
<path d="M80 395 l0 -305 95 0 94 0 3 128 3 127 64 -103 63 -103 46 3 46 3 63
105 63 105 0 -135 c0 -73 4 -130 8 -125 5 6 48 98 95 206 l87 196 0 102 0 101
-85 0 -84 0 -87 -147 c-48 -82 -92 -153 -98 -160 -8 -8 -36 30 -106 148 l-95
158 -87 1 -88 0 0 -305z"/>
<path d="M796 408 c-71 -161 -130 -299 -133 -306 -4 -10 18 -12 102 -10 l107
3 18 45 18 45 117 0 117 0 17 -45 17 -45 108 -3 c105 -3 107 -2 101 18 -4 11
-62 148 -130 303 l-123 282 -105 3 -104 3 -127 -293z m258 4 l25 -62 -55 0
-54 0 19 48 c10 26 21 56 25 66 9 25 12 20 40 -52z"/>
<path d="M1420 684 c-121 -43 -178 -147 -136 -248 22 -52 73 -84 177 -110 118
-30 129 -35 129 -52 0 -40 -121 -42 -209 -3 -24 10 -45 19 -47 19 -1 0 16 -44
40 -97 l42 -98 83 -3 c176 -6 291 70 291 193 0 95 -54 142 -205 180 -54 13
-102 28 -108 34 -17 17 1 40 39 47 33 6 52 2 175 -33 11 -3 23 12 42 57 15 34
27 67 27 74 0 41 -253 71 -340 40z"/>
<path d="M2512 683 c-5 -10 -62 -139 -127 -288 -64 -148 -121 -278 -127 -288
-8 -16 0 -17 100 -17 l109 0 20 53 20 52 114 0 113 0 21 -53 20 -52 109 0 c83
0 107 3 103 13 -3 6 -49 111 -102 232 -53 121 -110 253 -127 293 l-31 72 -103
0 c-88 0 -105 -3 -112 -17z m136 -261 c12 -32 22 -61 22 -65 0 -4 -22 -7 -50
-7 -27 0 -50 3 -50 7 0 13 45 123 50 123 3 0 15 -26 28 -58z"/>
<path d="M1892 662 c-92 -33 -142 -98 -142 -185 0 -86 65 -143 195 -172 91
-20 125 -34 125 -51 0 -8 -12 -19 -27 -25 -34 -14 -147 2 -195 27 -16 8 -31
14 -33 12 -5 -6 75 -182 88 -191 19 -13 198 -1 238 16 87 38 137 116 126 199
-11 80 -67 124 -195 152 -103 23 -124 33 -120 54 7 39 88 38 214 -3 19 -6 24
1 48 59 14 37 26 70 26 75 0 19 -98 43 -195 47 -81 4 -110 1 -153 -14z"/>
</g>
</svg>
